{"title":"The Muppets 2011 TS XviD Feel-Free","uid":6914544,"size":973760468,"categoryP":"video","categoryS":"movies","magnet":"?xt=urn:btih:589a8185db722baf03cc668654cda98f4edd648d&amp;dn=The+Muppets+2011+TS+XviD+Feel-Free&amp;tr=udp%3A%2F%2Ftracker.openbittorrent.com%3A80&amp;tr=udp%3A%2F%2Fopen.demonii.com%3A1337&amp;tr=udp%3A%2F%2Ftracker.coppersurfer.tk%3A6969&amp;tr=udp%3A%2F%2Fexodus.desync.com%3A6969","seeders":1,"leechers":1,"uploader":"rcbcsk","files":8,"time":1324981370,"description":"Genre:Family | Musical\nLanguage:English\nIMDb:http://www.imdb.com/title/tt1204342/\nSource:720p TS XviD - SAiNTNiK Thanks!\n\nFormat : AVI\nFormat/Info : Audio Video Interleave\nFile size : 927 MiB\nDuration : 1h 39mn\nOverall bit rate : 1 309 Kbps\n\nVideo\nID : 0\nFormat : MPEG-4 Visual\nFormat profile : Advanced Simple@L5\nFormat settings, BVOP : Yes\nFormat settings, QPel : No\nFormat settings, GMC : No warppoints\nFormat settings, Matrix : Default (H.263)\nCodec ID : XVID\nCodec ID/Hint : XviD\nDuration : 1h 39mn\nBit rate : 1 108 Kbps\nWidth : 640 pixels\nHeight : 272 pixels\nDisplay aspect ratio : 2.35:1\nFrame rate : 24.000 fps\nColor space : YUV\nChroma subsampling : 4:2:0\nBit depth : 8 bits\nScan type : Progressive\nBits/(Pixel*Frame) : 0.265\nStream size : 785 MiB (85%)\nWriting library : XviD 1.2.1 (UTC 2008-12-04)\n\nAudio\nID : 1\nFormat : AC-3\nFormat/Info : Audio Coding 3\nMode extension : CM (complete main)\nCodec ID : 2000\nDuration : 1h 39mn\nBit rate mode : Constant\nBit rate : 192 Kbps\nChannel(s) : 2 channels\nChannel positions : Front: L R\nSampling rate : 48.0 KHz\nBit depth : 16 bits\nStream size : 136 MiB (15%)\nAlignment : Aligned on interleaves\nInterleave, duration : 42 ms (1.00 video frame)\nInterleave, preload duration : 512 ms\n\n\nPlot:\nWith the help of three fans, The Muppets must reunite to save their old theater from a greedy oil tycoon\n\nScreens\n &lt;a href=&quot;\nhttp://img215.imageshack.us/img215/8453/vlcsnap00001eo.png&quot; rel=&quot;nofollow&quot; target=&quot;_NEW&quot;&gt;\nhttp://img215.imageshack.us/img215/8453/vlcsnap00001eo.png&lt;/a&gt;\n &lt;a href=&quot;\nhttp://img838.imageshack.us/img838/7250/vlcsnap00002ko.png&quot; rel=&quot;nofollow&quot; target=&quot;_NEW&quot;&gt;\nhttp://img838.imageshack.us/img838/7250/vlcsnap00002ko.png&lt;/a&gt;\n &lt;a href=&quot;\nhttp://img525.imageshack.us/img525/4802/vlcsnap00004rw.png&quot; rel=&quot;nofollow&quot; target=&quot;_NEW&quot;&gt;\nhttp://img525.imageshack.us/img525/4802/vlcsnap00004rw.png&lt;/a&gt;\n &lt;a href=&quot;\nhttp://img155.imageshack.us/img155/9100/vlcsnap00003um.png&quot; rel=&quot;nofollow&quot; target=&quot;_NEW&quot;&gt;\nhttp://img155.imageshack.us/img155/9100/vlcsnap00003um.png&lt;/a&gt;","torrent":{"xt":"urn:btih:589a8185db722baf03cc668654cda98f4edd648d","amp;dn":"The+Muppets+2011+TS+XviD+Feel-Free","amp;tr":["udp%3A%2F%2Ftracker.openbittorrent.com%3A80","udp%3A%2F%2Fopen.demonii.com%3A1337","udp%3A%2F%2Ftracker.coppersurfer.tk%3A6969","udp%3A%2F%2Fexodus.desync.com%3A6969"],"infoHash":"589a8185db722baf03cc668654cda98f4edd648d","infoHashBuffer":{"type":"Buffer","data":[88,154,129,133,219,114,43,175,3,204,102,134,84,205,169,143,78,221,100,141]},"announce":[],"urlList":[]}}